<?xml version="1.0" encoding="UTF-8"?>
<svg id="Capa_1" xmlns="http://www.w3.org/2000/svg" version="1.1" viewBox="0 0 64 64">
  <!-- Generator: Adobe Illustrator 30.5.1, SVG Export Plug-In . SVG Version: 2.1.4 Build 3)  -->
  <defs>
    <style>
      .st0 {
        fill: none;
      }

      .st1 {
        isolation: isolate;
      }

      .st2 {
        fill: #020617;
      }

      .st3 {
        fill: #2563eb;
      }

      .st4 {
        fill: #fff;
      }
    </style>
  </defs>
  <rect class="st2" width="64" height="64" rx="12" ry="12"/>
  <rect class="st0" x="3" y="3" width="58" height="58" rx="10" ry="10"/>
  <g>
    <g class="st1">
      <path class="st4" d="M18.15,32.91v-10.98h3.71v11.23c0,.95-.17,1.85-.52,2.71-.34.85-.85,1.61-1.53,2.27-.68.66-1.51,1.17-2.51,1.55-.99.37-2.15.56-3.47.56-1.02,0-2.01-.13-2.97-.39-.96-.26-1.82-.65-2.58-1.18-.76-.53-1.38-1.2-1.84-2.01s-.72-1.76-.75-2.86h3.51c.2,1.06.73,1.86,1.57,2.41s1.86.82,3.05.82c1.02,0,1.85-.18,2.48-.54.63-.36,1.1-.86,1.39-1.48.3-.62.45-1.32.45-2.1Z"/>
      <path class="st4" d="M47.2,33.46c-.17,1.45-.68,2.69-1.53,3.71-.85,1.02-2.02,1.8-3.48,2.34-1.47.54-3.21.81-5.24.81-1.69,0-3.24-.2-4.64-.59-1.4-.39-2.61-.97-3.62-1.76s-1.8-1.75-2.35-2.91c-.56-1.16-.84-2.52-.84-4.08s.28-2.93.84-4.1c.56-1.17,1.34-2.15,2.35-2.94,1.01-.79,2.22-1.38,3.62-1.78,1.4-.4,2.95-.6,4.64-.6,2.03,0,3.78.28,5.25.84,1.48.56,2.64,1.35,3.5,2.38.85,1.03,1.36,2.28,1.5,3.75h-3.68c-.24-.78-.65-1.45-1.21-2.02-.57-.57-1.3-1-2.19-1.3-.89-.3-1.95-.45-3.18-.45-1.52,0-2.86.24-4.01.71-1.15.47-2.04,1.17-2.68,2.09-.63.92-.95,2.06-.95,3.41s.32,2.46.95,3.37,1.52,1.6,2.68,2.08c1.15.47,2.49.71,4.01.71,1.23,0,2.28-.15,3.16-.45s1.61-.72,2.17-1.28c.57-.56.98-1.21,1.24-1.95h3.68Z"/>
    </g>
    <rect class="st3" x="50.27" y="33.01" width="8.76" height="6.95"/>
  </g>
</svg>